<svg>
    <symbol id="icon-plus" width="14" height="14" viewBox="0 0 10 10" fill="none" xmlns="http://www.w3.org/2000/svg">
        <path d="M0.912109 5.75C0.757161 5.75 0.620443 5.69531 0.501953 5.58594C0.392578 5.46745 0.337891 5.32617 0.337891 5.16211C0.337891 5.00716 0.392578 4.875 0.501953 4.76562C0.620443 4.64714 0.757161 4.58789 0.912109 4.58789H4.41211V1.08789C4.41211 0.923828 4.4668 0.787109 4.57617 0.677734C4.69466 0.559245 4.83594 0.5 5 0.5C5.16406 0.5 5.30078 0.559245 5.41016 0.677734C5.52865 0.787109 5.58789 0.923828 5.58789 1.08789V4.58789H9.08789C9.24284 4.58789 9.375 4.64714 9.48438 4.76562C9.60286 4.875 9.66211 5.00716 9.66211 5.16211C9.66211 5.32617 9.60286 5.46745 9.48438 5.58594C9.375 5.69531 9.24284 5.75 9.08789 5.75H5.58789V9.25C5.58789 9.41406 5.52865 9.55534 5.41016 9.67383C5.30078 9.7832 5.16406 9.83789 5 9.83789C4.83594 9.83789 4.69466 9.7832 4.57617 9.67383C4.4668 9.55534 4.41211 9.41406 4.41211 9.25V5.75H0.912109Z" fill="black"></path>
    </symbol>

    <symbol id="icon-minus" width="14" height="14" viewBox="0 0 10 10" fill="none" xmlns="http://www.w3.org/2000/svg">
        <line x1="0" y1="7" x2="14" y2="7" stroke="black" stroke-width="2" />
    </symbol>

    <symbol id="icon-home" width="17" height="17" viewBox="0 0 17 17" fill="none" xmlns="http://www.w3.org/2000/svg">
        <path d="M8.50129 13.283V10.9648" stroke="#212529" stroke-width="1.5" stroke-linecap="round" stroke-linejoin="round"></path>
        <path d="M7.00993 1.55299L1.65493 5.84163C1.0522 6.32072 0.665836 7.33299 0.7972 8.09027L1.82493 14.2412C2.01038 15.3384 3.06129 16.2271 4.17402 16.2271H12.8286C13.9336 16.2271 14.9922 15.3307 15.1777 14.2412L16.2054 8.09027C16.329 7.33299 15.9427 6.32072 15.3477 5.84163L9.99265 1.56072C9.16584 0.896174 7.82902 0.896174 7.00993 1.55299Z" stroke="#212529" stroke-width="1.5" stroke-linecap="round" stroke-linejoin="round"></path>
    </symbol>

    <symbol id="icon-account" width="17" height="17" viewBox="0 0 17 17" fill="currentColor" xmlns="http://www.w3.org/2000/svg">
        <path d="M16.8927 15.7682C16.0329 14.3137 14.8061 13.1078 13.3338 12.27C11.8614 11.4322 10.1946 10.9914 8.49845 10.9914C6.80225 10.9914 5.13546 11.4322 3.66314 12.27C2.19082 13.1078 0.964024 14.3137 0.104236 15.7682C-0.00102398 15.9568 -0.027822 16.179 0.0295835 16.387C0.0566587 16.493 0.106188 16.592 0.174854 16.6774C0.243521 16.7627 0.329737 16.8325 0.427728 16.8821C0.554141 16.9534 0.697158 16.9903 0.842462 16.9894C0.986554 16.9954 1.12952 16.9616 1.25545 16.8917C1.38138 16.8218 1.48536 16.7185 1.5558 16.5933C2.26752 15.3886 3.2833 14.3898 4.50251 13.6958C5.72172 13.0018 7.10204 12.6367 8.50674 12.6367C9.91144 12.6367 11.2918 13.0018 12.511 13.6958C13.7302 14.3898 14.746 15.3886 15.4577 16.5933C15.5685 16.7806 15.7491 16.9169 15.9603 16.9725C16.1715 17.0281 16.3963 16.9986 16.5858 16.8903C16.6801 16.8403 16.7628 16.7711 16.8285 16.6872C16.8943 16.6034 16.9415 16.5067 16.9673 16.4035C16.998 16.298 17.0072 16.1874 16.9944 16.0783C16.9816 15.9692 16.947 15.8638 16.8927 15.7682Z"></path>
        <path d="M8.49966 10.2C9.83622 10.2002 11.1195 9.67091 12.0732 8.72594C13.027 7.78097 13.5752 6.49588 13.5997 5.14718C13.5997 3.78206 13.0623 2.47286 12.1059 1.50757C11.1495 0.542291 9.85226 0 8.49966 0C7.14705 0 5.84985 0.542291 4.89341 1.50757C3.93698 2.47286 3.39966 3.78206 3.39966 5.14718C3.42416 6.49588 3.97228 7.78097 4.92607 8.72594C5.87987 9.67091 7.1631 10.2002 8.49966 10.2ZM5.09966 5.14718C5.09966 4.2371 5.45787 3.3643 6.09549 2.72078C6.73312 2.07725 7.59792 1.71573 8.49966 1.71573C9.40139 1.71573 10.2662 2.07725 10.9038 2.72078C11.5414 3.3643 11.8997 4.2371 11.8997 5.14718C11.8997 6.05726 11.5414 6.93006 10.9038 7.57359C10.2662 8.21711 9.40139 8.57864 8.49966 8.57864C7.59792 8.57864 6.73312 8.21711 6.09549 7.57359C5.45787 6.93006 5.09966 6.05726 5.09966 5.14718Z"></path>
    </symbol>

    <symbol id="icon-shop" width="17" height="17" viewBox="0 0 17 17" fill="none" xmlns="http://www.w3.org/2000/svg">
         <path d="M1.57253 7.89728V11.3668C1.57253 14.8364 2.96343 16.2273 6.43298 16.2273H10.598C14.0675 16.2273 15.4584 14.8364 15.4584 11.3668V7.89728"
            stroke="#111111" stroke-width="1.4" stroke-linecap="round" stroke-linejoin="round"></path>
        <path
            d="M8.51934 8.49998C9.93343 8.49998 10.9766 7.34861 10.8375 5.93452L10.3275 0.772705H6.71888L6.20116 5.93452C6.06207 7.34861 7.10525 8.49998 8.51934 8.49998Z"
            stroke="#111111" stroke-width="1.4" stroke-linecap="round" stroke-linejoin="round"></path>
        <path
            d="M13.3953 8.49998C14.9562 8.49998 16.0998 7.23271 15.9453 5.67952L15.7289 3.55452C15.4507 1.54543 14.678 0.772705 12.6534 0.772705H10.2966L10.8375 6.18952C10.9689 7.46452 12.1203 8.49998 13.3953 8.49998Z"
            stroke="#111111" stroke-width="1.4" stroke-linecap="round" stroke-linejoin="round"></path>
        <path
            d="M3.60479 8.49998C4.87979 8.49998 6.03116 7.46452 6.15479 6.18952L6.32479 4.4818L6.6957 0.772705H4.33888C2.31434 0.772705 1.54161 1.54543 1.26343 3.55452L1.05479 5.67952C0.900247 7.23271 2.04388 8.49998 3.60479 8.49998Z"
             stroke="#111111" stroke-width="1.4" stroke-linecap="round" stroke-linejoin="round"></path>
        <path
            d="M8.51934 12.3636C7.22889 12.3636 6.58752 13.005 6.58752 14.2955V16.2273H10.4512V14.2955C10.4512 13.005 9.8098 12.3636 8.51934 12.3636Z"
            stroke="#111111" stroke-width="1.4" stroke-linecap="round" stroke-linejoin="round"></path>
    </symbol>

    <symbol id="icon-wishlist" width="21" height="17" viewBox="0 0 14 13" fill="currentColor" xmlns="http://www.w3.org/2000/svg">
        <path d="M11.7441 2.26562C11.9993 2.52083 12.1908 2.8125 12.3184 3.14062C12.446 3.45964 12.5098 3.78776 12.5098 4.125C12.5098 4.46224 12.446 4.79492 12.3184 5.12305C12.1908 5.44206 11.9993 5.72917 11.7441 5.98438L7 10.7285L2.25586 5.98438C2.00065 5.72917 1.80924 5.44206 1.68164 5.12305C1.55404 4.79492 1.49023 4.46224 1.49023 4.125C1.49023 3.78776 1.55404 3.45964 1.68164 3.14062C1.80924 2.8125 2.00065 2.52083 2.25586 2.26562C2.51107 2.01042 2.79818 1.81901 3.11719 1.69141C3.44531 1.5638 3.77799 1.5 4.11523 1.5C4.45247 1.5 4.7806 1.5638 5.09961 1.69141C5.41862 1.81901 5.71029 2.01042 5.97461 2.26562L6.58984 2.88086C6.69922 2.99935 6.83594 3.05859 7 3.05859C7.16406 3.05859 7.30078 2.99935 7.41016 2.88086L8.02539 2.26562C8.28971 2.01042 8.58138 1.81901 8.90039 1.69141C9.2194 1.5638 9.54753 1.5 9.88477 1.5C10.222 1.5 10.5501 1.5638 10.8691 1.69141C11.1973 1.81901 11.4889 2.01042 11.7441 2.26562ZM12.5645 1.44531C12.1999 1.07161 11.7806 0.79362 11.3066 0.611328C10.8418 0.429036 10.3678 0.337891 9.88477 0.337891C9.40169 0.337891 8.92773 0.429036 8.46289 0.611328C7.99805 0.79362 7.57878 1.07161 7.20508 1.44531L7 1.65039L6.79492 1.44531C6.42122 1.07161 6.00195 0.79362 5.53711 0.611328C5.07227 0.429036 4.59831 0.337891 4.11523 0.337891C3.63216 0.337891 3.15365 0.429036 2.67969 0.611328C2.21484 0.79362 1.80013 1.07161 1.43555 1.44531C1.06185 1.8099 0.779297 2.22917 0.587891 2.70312C0.405599 3.16797 0.314453 3.64193 0.314453 4.125C0.314453 4.60807 0.405599 5.08659 0.587891 5.56055C0.779297 6.02539 1.06185 6.4401 1.43555 6.80469L6.58984 11.959C6.69922 12.0775 6.83594 12.1367 7 12.1367C7.16406 12.1367 7.30078 12.0775 7.41016 11.959L12.5645 6.80469C12.9382 6.4401 13.2161 6.02539 13.3984 5.56055C13.5898 5.08659 13.6855 4.60807 13.6855 4.125C13.6855 3.64193 13.5898 3.16797 13.3984 2.70312C13.2161 2.23828 12.9382 1.81901 12.5645 1.44531Z"></path>
    </symbol>

    <symbol id="icon-cart" width="21" height="17" viewBox="0 0 21 17" fill="currentColor" xmlns="http://www.w3.org/2000/svg">
        <path d="M14.3699 15.3407C14.1509 15.3407 13.941 15.2535 13.7862 15.0982C13.6314 14.943 13.5444 14.7324 13.5444 14.5128H11.8936C11.8936 15.1715 12.1545 15.8032 12.6189 16.269C13.0832 16.7347 13.7131 16.9964 14.3699 16.9964C15.0266 16.9964 15.6565 16.7347 16.1209 16.269C16.5853 15.8032 16.8462 15.1715 16.8462 14.5128H15.1953C15.1953 14.7324 15.1083 14.943 14.9535 15.0982C14.7987 15.2535 14.5888 15.3407 14.3699 15.3407Z"></path>
        <path d="M8.5612 15.3407C8.34228 15.3407 8.13233 15.2535 7.97753 15.0982C7.82273 14.943 7.73576 14.7324 7.73576 14.5128H6.07715C6.07715 14.8395 6.14129 15.1629 6.26592 15.4646C6.39055 15.7664 6.57322 16.0406 6.8035 16.2715C7.03378 16.5025 7.30717 16.6857 7.60805 16.8107C7.90893 16.9357 8.23141 17 8.55707 17C8.88274 17 9.20522 16.9357 9.5061 16.8107C9.80698 16.6857 10.0804 16.5025 10.3106 16.2715C10.5409 16.0406 10.7236 15.7664 10.8482 15.4646C10.9729 15.1629 11.037 14.8395 11.037 14.5128H9.38612C9.38612 14.7323 9.29923 14.9428 9.14454 15.098C8.98985 15.2533 8.78003 15.3406 8.5612 15.3407Z"></path>
        <path d="M19.3299 1.64401C19.2849 1.63633 19.2393 1.63252 19.1937 1.63263H5.9867C5.76778 1.63263 5.55782 1.71985 5.40302 1.8751C5.24823 2.03035 5.16126 2.24092 5.16126 2.46047C5.16126 2.68003 5.24823 2.8906 5.40302 3.04585C5.55782 3.2011 5.76778 3.28832 5.9867 3.28832H18.2192L18.001 4.60149L16.8438 11.5668H6.07595L3.26946 4.60149L1.59537 0.482961C1.50684 0.289212 1.34721 0.13717 1.14972 0.0584856C0.952225 -0.020199 0.732083 -0.0194636 0.535118 0.0605389C0.338153 0.140541 0.179541 0.293646 0.0922992 0.487983C0.00505767 0.682319 -0.00409102 0.902913 0.0667575 1.10384L2.73963 7.68158L4.56385 12.5307C4.6985 12.9389 4.97657 13.2224 5.37794 13.2224H17.5428C17.7383 13.2225 17.9275 13.1531 18.0766 13.0264C18.2258 12.8997 18.3253 12.724 18.3574 12.5307L19.675 4.60149L20.0083 2.59655C20.0443 2.38002 19.993 2.15803 19.8658 1.9794C19.7386 1.80077 19.5458 1.68013 19.3299 1.64401Z"></path>
    </symbol>

    <symbol id="add-to-cart" width="14" height="13" viewBox="0 0 14 13" fill="none" xmlns="http://www.w3.org/2000/svg">
        <path d="M10.5454 11.3287C10.3922 11.3287 10.2452 11.2672 10.1369 11.1576C10.0285 11.048 9.96763 10.8994 9.96763 10.7444H8.81201C8.81201 11.2093 8.99464 11.6552 9.31972 11.984C9.6448 12.3128 10.0857 12.4975 10.5454 12.4975C11.0052 12.4975 11.4461 12.3128 11.7711 11.984C12.0962 11.6552 12.2789 11.2093 12.2789 10.7444H11.1232C11.1232 10.8994 11.0624 11.048 10.954 11.1576C10.8456 11.2672 10.6987 11.3287 10.5454 11.3287Z" fill="currentColor"></path>
        <path d="M6.47907 11.3287C6.32583 11.3287 6.17886 11.2672 6.0705 11.1576C5.96214 11.048 5.90127 10.8994 5.90127 10.7444H4.74023C4.74023 10.9749 4.78514 11.2032 4.87238 11.4162C4.95962 11.6292 5.08748 11.8228 5.24868 11.9858C5.40988 12.1488 5.60125 12.2782 5.81186 12.3664C6.02248 12.4546 6.24822 12.5 6.47618 12.5C6.70415 12.5 6.92989 12.4546 7.1405 12.3664C7.35112 12.2782 7.54249 12.1488 7.70368 11.9858C7.86488 11.8228 7.99275 11.6292 8.07999 11.4162C8.16723 11.2032 8.21213 10.9749 8.21213 10.7444H7.05652C7.05652 10.8993 6.99569 11.0479 6.88741 11.1575C6.77913 11.267 6.63225 11.3286 6.47907 11.3287Z" fill="currentColor"></path>
        <path d="M14.0173 1.66048C13.9858 1.65506 13.9539 1.65237 13.9219 1.65244H4.67702C4.52377 1.65244 4.37681 1.71401 4.26845 1.8236C4.16009 1.93319 4.09921 2.08182 4.09921 2.23681C4.09921 2.39179 4.16009 2.54042 4.26845 2.65001C4.37681 2.7596 4.52377 2.82117 4.67702 2.82117H13.2398L13.087 3.74811L12.277 8.66477H4.73949L2.77495 3.74811L1.60308 0.840914C1.54111 0.70415 1.42937 0.596826 1.29113 0.541284C1.15289 0.485742 0.998786 0.486261 0.860911 0.542733C0.723035 0.599206 0.612007 0.70728 0.550938 0.844458C0.489868 0.981637 0.483464 1.13735 0.533058 1.27918L2.40407 5.9223L3.68102 9.34519C3.77528 9.63335 3.96993 9.83349 4.25088 9.83349H12.7663C12.9031 9.83356 13.0355 9.78452 13.14 9.6951C13.2444 9.60568 13.314 9.48168 13.3365 9.34519L14.2589 3.74811L14.4921 2.33286C14.5173 2.18001 14.4814 2.02331 14.3924 1.89722C14.3033 1.77113 14.1684 1.68598 14.0173 1.66048Z" fill="currentColor"></path>
    </symbol>

    <symbol id="view" width="14" height="12" viewBox="0 0 14 12" fill="none" xmlns="http://www.w3.org/2000/svg">
        <path d="M0.0683594 5.90234C0.0227865 5.98438 0 6.07096 0 6.16211C0 6.25326 0.0227865 6.33984 0.0683594 6.42188C0.0683594 6.42188 0.123047 6.52669 0.232422 6.73633C0.341797 6.93685 0.501302 7.19206 0.710938 7.50195C0.847656 7.69336 0.998047 7.90299 1.16211 8.13086C1.33529 8.34961 1.52669 8.57292 1.73633 8.80078C2.00065 9.08333 2.29232 9.36589 2.61133 9.64844C2.93945 9.93099 3.29492 10.1908 3.67773 10.4277C4.14258 10.7194 4.65299 10.9564 5.20898 11.1387C5.76497 11.321 6.36198 11.4121 7 11.4121C7.63802 11.4121 8.23503 11.321 8.79102 11.1387C9.34701 10.9564 9.85742 10.7194 10.3223 10.4277C10.7051 10.1908 11.056 9.93099 11.375 9.64844C11.7031 9.36589 11.9993 9.08333 12.2637 8.80078C12.4733 8.57292 12.6602 8.34961 12.8242 8.13086C12.9974 7.90299 13.1523 7.69336 13.2891 7.50195C13.4987 7.19206 13.6582 6.93685 13.7676 6.73633C13.877 6.52669 13.9316 6.42188 13.9316 6.42188C13.9772 6.34896 14 6.26693 14 6.17578C14 6.08464 13.9772 5.99349 13.9316 5.90234C13.9316 5.90234 13.877 5.80208 13.7676 5.60156C13.6582 5.39193 13.4987 5.13672 13.2891 4.83594C13.1523 4.64453 12.9974 4.43945 12.8242 4.2207C12.6602 3.99284 12.4733 3.76497 12.2637 3.53711C11.9993 3.25456 11.7031 2.97201 11.375 2.68945C11.056 2.4069 10.7051 2.14714 10.3223 1.91016C9.85742 1.61849 9.34701 1.38151 8.79102 1.19922C8.23503 1.00781 7.63802 0.912109 7 0.912109C6.36198 0.912109 5.76497 1.00781 5.20898 1.19922C4.65299 1.38151 4.14258 1.61849 3.67773 1.91016C3.29492 2.14714 2.93945 2.4069 2.61133 2.68945C2.29232 2.97201 2.00065 3.25456 1.73633 3.53711C1.52669 3.76497 1.33529 3.99284 1.16211 4.2207C0.998047 4.43945 0.847656 4.64453 0.710938 4.83594C0.501302 5.13672 0.341797 5.39193 0.232422 5.60156C0.123047 5.80208 0.0683594 5.90234 0.0683594 5.90234ZM1.24414 6.16211C1.29883 6.08008 1.35807 5.98438 1.42188 5.875C1.49479 5.75651 1.58138 5.62891 1.68164 5.49219C1.80013 5.31901 1.93685 5.13216 2.0918 4.93164C2.24674 4.73112 2.41536 4.5306 2.59766 4.33008C2.83464 4.06576 3.0944 3.81055 3.37695 3.56445C3.65951 3.31836 3.96484 3.09505 4.29297 2.89453C4.6849 2.64844 5.10417 2.45247 5.55078 2.30664C6.00651 2.16081 6.48958 2.08789 7 2.08789C7.51042 2.08789 7.98893 2.16081 8.43555 2.30664C8.89128 2.45247 9.3151 2.64844 9.70703 2.89453C10.0352 3.09505 10.3405 3.31836 10.623 3.56445C10.9056 3.81055 11.1654 4.06576 11.4023 4.33008C11.5846 4.5306 11.7533 4.73112 11.9082 4.93164C12.0632 5.13216 12.1999 5.31901 12.3184 5.49219C12.4186 5.62891 12.5007 5.75651 12.5645 5.875C12.6374 5.98438 12.7012 6.08008 12.7559 6.16211C12.7012 6.24414 12.6374 6.3444 12.5645 6.46289C12.5007 6.57227 12.4186 6.69987 12.3184 6.8457C12.1999 7.01888 12.0632 7.20573 11.9082 7.40625C11.7533 7.60677 11.5846 7.80729 11.4023 8.00781C11.1654 8.26302 10.9056 8.51367 10.623 8.75977C10.3405 9.00586 10.0352 9.23372 9.70703 9.44336C9.3151 9.68034 8.89128 9.8763 8.43555 10.0312C7.98893 10.1771 7.51042 10.25 7 10.25C6.48958 10.25 6.00651 10.1771 5.55078 10.0312C5.10417 9.8763 4.6849 9.68034 4.29297 9.44336C3.96484 9.23372 3.65951 9.00586 3.37695 8.75977C3.0944 8.51367 2.83464 8.26302 2.59766 8.00781C2.41536 7.80729 2.24674 7.60677 2.0918 7.40625C1.93685 7.20573 1.80013 7.01888 1.68164 6.8457C1.58138 6.69987 1.49479 6.57227 1.42188 6.46289C1.35807 6.3444 1.29883 6.24414 1.24414 6.16211ZM9.33789 6.16211C9.33789 5.8431 9.27409 5.54232 9.14648 5.25977C9.02799 4.97721 8.86393 4.73112 8.6543 4.52148C8.44466 4.31185 8.19401 4.14779 7.90234 4.0293C7.61979 3.90169 7.31901 3.83789 7 3.83789C6.68099 3.83789 6.37565 3.90169 6.08398 4.0293C5.80143 4.14779 5.55534 4.31185 5.3457 4.52148C5.13607 4.73112 4.96745 4.97721 4.83984 5.25977C4.72135 5.54232 4.66211 5.8431 4.66211 6.16211C4.66211 6.49023 4.72135 6.79557 4.83984 7.07812C4.96745 7.36068 5.13607 7.60677 5.3457 7.81641C5.55534 8.02604 5.80143 8.19466 6.08398 8.32227C6.37565 8.44076 6.68099 8.5 7 8.5C7.31901 8.5 7.61979 8.44076 7.90234 8.32227C8.19401 8.19466 8.44466 8.02604 8.6543 7.81641C8.86393 7.60677 9.02799 7.36068 9.14648 7.07812C9.27409 6.79557 9.33789 6.49023 9.33789 6.16211ZM8.16211 6.16211C8.16211 6.32617 8.13021 6.48112 8.06641 6.62695C8.01172 6.76367 7.92969 6.88672 7.82031 6.99609C7.72005 7.09635 7.59701 7.17839 7.45117 7.24219C7.31445 7.30599 7.16406 7.33789 7 7.33789C6.83594 7.33789 6.68099 7.30599 6.53516 7.24219C6.39844 7.17839 6.27995 7.09635 6.17969 6.99609C6.07031 6.88672 5.98372 6.76367 5.91992 6.62695C5.86523 6.48112 5.83789 6.32617 5.83789 6.16211C5.83789 6.00716 5.86523 5.86133 5.91992 5.72461C5.98372 5.57878 6.07031 5.45117 6.17969 5.3418C6.27995 5.23242 6.39844 5.15039 6.53516 5.0957C6.68099 5.0319 6.83594 5 7 5C7.16406 5 7.31445 5.0319 7.45117 5.0957C7.59701 5.15039 7.72005 5.23242 7.82031 5.3418C7.92969 5.45117 8.01172 5.57878 8.06641 5.72461C8.13021 5.86133 8.16211 6.00716 8.16211 6.16211Z"
             fill="currentColor"></path>
    </symbol>

    <symbol id="compare" width="14" height="14" viewBox="0 0 14 14" fill="none" xmlns="http://www.w3.org/2000/svg">
        <path
            d="M7 1.98047L11.5254 4.25L7 6.51953L2.47461 4.25L7 1.98047ZM6.74023 0.818359L0.902344 3.73047C0.75651 3.80339 0.65625 3.91732 0.601562 4.07227C0.55599 4.2181 0.569661 4.36393 0.642578 4.50977C0.669922 4.57357 0.70638 4.62826 0.751953 4.67383C0.797526 4.71029 0.847656 4.74219 0.902344 4.76953L6.74023 7.68164C6.82227 7.72721 6.90885 7.75 7 7.75C7.09115 7.75 7.17773 7.72721 7.25977 7.68164L13.0977 4.76953C13.2435 4.69661 13.3392 4.58724 13.3848 4.44141C13.4395 4.28646 13.4303 4.13607 13.3574 3.99023C13.3301 3.92643 13.2936 3.8763 13.248 3.83984C13.2025 3.79427 13.1523 3.75781 13.0977 3.73047L7.25977 0.804688C7.17773 0.768229 7.09115 0.75 7 0.75C6.90885 0.75 6.82227 0.768229 6.74023 0.804688V0.818359ZM0.902344 10.6074L6.74023 13.5195C6.82227 13.5651 6.90885 13.5833 7 13.5742C7.09115 13.5742 7.17773 13.556 7.25977 13.5195L13.0977 10.6074C13.2435 10.5345 13.3392 10.4206 13.3848 10.2656C13.4395 10.1107 13.4303 9.96484 13.3574 9.82812C13.2845 9.68229 13.1706 9.58659 13.0156 9.54102C12.8607 9.48633 12.7148 9.49089 12.5781 9.55469L7 12.3438L1.42188 9.56836C1.28516 9.49544 1.13932 9.48633 0.984375 9.54102C0.829427 9.58659 0.715495 9.68229 0.642578 9.82812C0.569661 9.96484 0.55599 10.1107 0.601562 10.2656C0.65625 10.4206 0.75651 10.5345 0.902344 10.6074ZM0.902344 7.68164L6.74023 10.6074C6.82227 10.6439 6.90885 10.6621 7 10.6621C7.09115 10.6621 7.17773 10.6439 7.25977 10.6074L13.0977 7.68164C13.2435 7.61784 13.3392 7.50846 13.3848 7.35352C13.4395 7.19857 13.4303 7.04818 13.3574 6.90234C13.2845 6.75651 13.1706 6.66081 13.0156 6.61523C12.8607 6.56055 12.7148 6.56966 12.5781 6.64258L7 9.43164L1.42188 6.64258C1.28516 6.56966 1.13932 6.56055 0.984375 6.61523C0.829427 6.66081 0.715495 6.75651 0.642578 6.90234C0.569661 7.04818 0.55599 7.19857 0.601562 7.35352C0.65625 7.50846 0.75651 7.6224 0.902344 7.69531V7.68164Z"
            fill="currentColor"></path>
    </symbol>

    <symbol id="add-to-wishlist" width="14" height="13" viewBox="0 0 14 13" fill="none" xmlns="http://www.w3.org/2000/svg">
        <path
             d="M11.7441 2.26562C11.9993 2.52083 12.1908 2.8125 12.3184 3.14062C12.446 3.45964 12.5098 3.78776 12.5098 4.125C12.5098 4.46224 12.446 4.79492 12.3184 5.12305C12.1908 5.44206 11.9993 5.72917 11.7441 5.98438L7 10.7285L2.25586 5.98438C2.00065 5.72917 1.80924 5.44206 1.68164 5.12305C1.55404 4.79492 1.49023 4.46224 1.49023 4.125C1.49023 3.78776 1.55404 3.45964 1.68164 3.14062C1.80924 2.8125 2.00065 2.52083 2.25586 2.26562C2.51107 2.01042 2.79818 1.81901 3.11719 1.69141C3.44531 1.5638 3.77799 1.5 4.11523 1.5C4.45247 1.5 4.7806 1.5638 5.09961 1.69141C5.41862 1.81901 5.71029 2.01042 5.97461 2.26562L6.58984 2.88086C6.69922 2.99935 6.83594 3.05859 7 3.05859C7.16406 3.05859 7.30078 2.99935 7.41016 2.88086L8.02539 2.26562C8.28971 2.01042 8.58138 1.81901 8.90039 1.69141C9.2194 1.5638 9.54753 1.5 9.88477 1.5C10.222 1.5 10.5501 1.5638 10.8691 1.69141C11.1973 1.81901 11.4889 2.01042 11.7441 2.26562ZM12.5645 1.44531C12.1999 1.07161 11.7806 0.79362 11.3066 0.611328C10.8418 0.429036 10.3678 0.337891 9.88477 0.337891C9.40169 0.337891 8.92773 0.429036 8.46289 0.611328C7.99805 0.79362 7.57878 1.07161 7.20508 1.44531L7 1.65039L6.79492 1.44531C6.42122 1.07161 6.00195 0.79362 5.53711 0.611328C5.07227 0.429036 4.59831 0.337891 4.11523 0.337891C3.63216 0.337891 3.15365 0.429036 2.67969 0.611328C2.21484 0.79362 1.80013 1.07161 1.43555 1.44531C1.06185 1.8099 0.779297 2.22917 0.587891 2.70312C0.405599 3.16797 0.314453 3.64193 0.314453 4.125C0.314453 4.60807 0.405599 5.08659 0.587891 5.56055C0.779297 6.02539 1.06185 6.4401 1.43555 6.80469L6.58984 11.959C6.69922 12.0775 6.83594 12.1367 7 12.1367C7.16406 12.1367 7.30078 12.0775 7.41016 11.959L12.5645 6.80469C12.9382 6.4401 13.2161 6.02539 13.3984 5.56055C13.5898 5.08659 13.6855 4.60807 13.6855 4.125C13.6855 3.64193 13.5898 3.16797 13.3984 2.70312C13.2161 2.23828 12.9382 1.81901 12.5645 1.44531Z"
            fill="currentColor"></path>
    </symbol>

     <symbol id="arrow-double" width="17" height="17" viewBox="0 0 24 24" fill="none"  xmlns="http://www.w3.org/2000/svg">
        <path d="M6 17L11 12L6 7M13 17L18 12L13 7" stroke="currentColor" stroke-width="2" stroke-linecap="round" stroke-linejoin="round"></path>
    </symbol>

    <symbol id="double" width="14" height="14" viewBox="0 0 10 10" fill="none" xmlns="http://www.w3.org/2000/svg">
        <path
            d="M0.912109 5.75C0.757161 5.75 0.620443 5.69531 0.501953 5.58594C0.392578 5.46745 0.337891 5.32617 0.337891 5.16211C0.337891 5.00716 0.392578 4.875 0.501953 4.76562C0.620443 4.64714 0.757161 4.58789 0.912109 4.58789H4.41211V1.08789C4.41211 0.923828 4.4668 0.787109 4.57617 0.677734C4.69466 0.559245 4.83594 0.5 5 0.5C5.16406 0.5 5.30078 0.559245 5.41016 0.677734C5.52865 0.787109 5.58789 0.923828 5.58789 1.08789V4.58789H9.08789C9.24284 4.58789 9.375 4.64714 9.48438 4.76562C9.60286 4.875 9.66211 5.00716 9.66211 5.16211C9.66211 5.32617 9.60286 5.46745 9.48438 5.58594C9.375 5.69531 9.24284 5.75 9.08789 5.75H5.58789V9.25C5.58789 9.41406 5.52865 9.55534 5.41016 9.67383C5.30078 9.7832 5.16406 9.83789 5 9.83789C4.83594 9.83789 4.69466 9.7832 4.57617 9.67383C4.4668 9.55534 4.41211 9.41406 4.41211 9.25V5.75H0.912109Z"
            fill="#555555"></path>
    </symbol>

    <symbol id="exit" width="14" height="15" viewBox="0 0 12 11" fill="none" xmlns="http://www.w3.org/2000/svg">
        <path d="M0.972656 1.52148C0.820312 1.38086 0.744141 1.21094 0.744141 1.01172C0.744141 0.800781 0.820312 0.619141 0.972656 0.466797C1.11328 0.326172 1.28906 0.255859 1.5 0.255859C1.71094 0.255859 1.88672 0.326172 2.02734 0.466797L6 4.43945L9.97266 0.466797C10.1133 0.326172 10.2891 0.255859 10.5 0.255859C10.7109 0.255859 10.8867 0.326172 11.0273 0.466797C11.1797 0.619141 11.2559 0.800781 11.2559 1.01172C11.2559 1.21094 11.1797 1.38086 11.0273 1.52148L7.05469 5.49414L11.0273 9.4668C11.1797 9.61914 11.2559 9.80078 11.2559 10.0117C11.2559 10.2109 11.1797 10.3809 11.0273 10.5215C10.8867 10.6738 10.7109 10.75 10.5 10.75C10.2891 10.75 10.1133 10.6738 9.97266 10.5215L6 6.56641L2.02734 10.5215C1.88672 10.6738 1.71094 10.75 1.5 10.75C1.28906 10.75 1.11328 10.6738 0.972656 10.5215C0.820312 10.3809 0.744141 10.2109 0.744141 10.0117C0.744141 9.80078 0.820312 9.61914 0.972656 9.4668L4.94531 5.49414L0.972656 1.52148Z" fill="currentColor"></path>
    </symbol>

    <symbol id="menu-toggle" width="22" height="14" viewBox="0 0 22 14" fill="currentColor" xmlns="http://www.w3.org/2000/svg">
        <path d="M2 8H20C20.2812 8 20.5156 7.90625 20.7031 7.71875C20.9062 7.51562 21.0078 7.27344 21.0078 6.99219C21.0078 6.72656 20.9062 6.5 20.7031 6.3125C20.5156 6.10938 20.2812 6.00781 20 6.00781H2C1.71875 6.00781 1.47656 6.10938 1.27344 6.3125C1.08594 6.5 0.992188 6.72656 0.992188 6.99219C0.992188 7.27344 1.08594 7.51562 1.27344 7.71875C1.47656 7.90625 1.71875 8 2 8ZM2 2H20C20.2812 2 20.5156 1.90625 20.7031 1.71875C20.9062 1.51563 21.0078 1.27344 21.0078 0.992188C21.0078 0.726562 20.9062 0.5 20.7031 0.3125C20.5156 0.109375 20.2812 0.0078125 20 0.0078125H2C1.71875 0.0078125 1.47656 0.109375 1.27344 0.3125C1.08594 0.5 0.992188 0.726562 0.992188 0.992188C0.992188 1.27344 1.08594 1.51563 1.27344 1.71875C1.47656 1.90625 1.71875 2 2 2ZM2 14H20C20.2812 14 20.5156 13.9062 20.7031 13.7188C20.9062 13.5156 21.0078 13.2734 21.0078 12.9922C21.0078 12.7266 20.9062 12.5 20.7031 12.3125C20.5156 12.1094 20.2812 12.0078 20 12.0078H2C1.71875 12.0078 1.47656 12.1094 1.27344 12.3125C1.08594 12.5 0.992188 12.7266 0.992188 12.9922C0.992188 13.2734 1.08594 13.5156 1.27344 13.7188C1.47656 13.9062 1.71875 14 2 14Z" fill="#111111"></path>
    </symbol>

    <symbol id="logo-load-page" xmlns="http://www.w3.org/2000/svg" width="144" height="37" viewBox="0 0 144 37" fill="none">  
        <path d="M111.798 9.72958C111.368 9.34001 110.818 9.11011 110.241 9.07788H100.852L101.498 9.72958L110.204 18.5046C110.375 18.6755 110.606 18.7715 110.846 18.7715C111.087 18.7715 111.318 18.6755 111.488 18.5046L115.359 14.6127C115.528 14.4408 115.623 14.2081 115.623 13.9656C115.623 13.7231 115.528 13.4905 115.359 13.3185L111.798 9.72958Z" fill="#0D53BB"></path>   
        <path d="M123.719 21.7447C123.55 21.5728 123.454 21.3401 123.454 21.0976C123.454 20.8551 123.55 20.6225 123.719 20.4505L125.012 19.1471L126.296 17.8529L143.363 0.651699C143.718 0.293724 144.009 0 144 0H134.62C134.042 0.0322334 133.493 0.262133 133.063 0.651699L118.574 15.2553L117.281 16.522L115.778 18.0273L114.494 19.3674L113.392 20.4505L112.099 21.7447L110.687 23.1675L109.403 24.4708L97.6375 36.3483L97 37H106.389C106.963 36.9712 107.51 36.7443 107.937 36.3575L117.281 26.94C117.365 26.8539 117.466 26.7856 117.577 26.739C117.688 26.6924 117.807 26.6685 117.927 26.6685C118.048 26.6685 118.167 26.6924 118.278 26.739C118.389 26.7856 118.489 26.8539 118.574 26.94L124.038 32.4473C124.465 32.8368 125.011 33.0669 125.586 33.099H134.074C134.575 33.099 134.693 32.8053 134.338 32.4473L126.014 24.0578L124.73 22.7636L123.719 21.7447Z" fill="#0D53BB"></path>   <path d="M80.001 11.7408C79.9986 11.642 80.0169 11.5437 80.0548 11.4522C80.0928 11.3608 80.1495 11.2781 80.2215 11.2094C80.2904 11.1405 80.373 11.0864 80.464 11.0505C80.555 11.0145 80.6526 10.9974 80.7505 11.0003H85.4591C85.5571 10.9974 85.6546 11.0145 85.7456 11.0505C85.8367 11.0864 85.9192 11.1405 85.9882 11.2094C86.0601 11.2781 86.1169 11.3608 86.1548 11.4522C86.1928 11.5437 86.2111 11.642 86.2086 11.7408V24.2766C86.1849 24.9619 86.3175 25.6437 86.5966 26.2715C86.8245 26.7538 87.159 27.1795 87.5753 27.5173C87.9464 27.8033 88.368 28.019 88.8186 28.1532C89.596 28.3969 90.4307 28.3969 91.2081 28.1532C91.6552 28.0233 92.0718 27.8072 92.4338 27.5173C92.842 27.176 93.17 26.7509 93.3949 26.2715C93.6814 25.6458 93.8173 24.9629 93.7917 24.2766V11.7408C93.7892 11.642 93.8075 11.5437 93.8455 11.4522C93.8834 11.3608 93.9402 11.2781 94.0121 11.2094C94.0811 11.1405 94.1636 11.0864 94.2546 11.0505C94.3456 11.0145 94.4432 10.9974 94.5412 11.0003H99.2497C99.4471 10.9985 99.6372 11.0736 99.7788 11.2094C99.8491 11.2793 99.9048 11.3622 99.9426 11.4534C99.9804 11.5446 99.9997 11.6422 99.9992 11.7408V24.2766C100.015 25.641 99.7763 26.9967 99.2938 28.2752C98.8495 29.4277 98.161 30.4732 97.2746 31.3416C96.3678 32.204 95.29 32.8714 94.1091 33.3017C92.8011 33.7833 91.4135 34.0197 90.0178 33.9986C88.6191 34.0204 87.2285 33.784 85.9176 33.3017C84.7367 32.8714 83.6589 32.204 82.7521 31.3416C81.8659 30.4714 81.1749 29.4266 80.7241 28.2752C80.2272 27.0001 79.9818 25.6428 80.001 24.2766V11.7408Z" fill="#0D53BB"></path>   <path d="M78 28.9727V33.2459C78 33.4554 77.9275 33.6334 77.7824 33.7801C77.6374 33.9267 77.4613 34 77.2541 34H61.7459C61.518 34 61.3315 33.9267 61.1865 33.7801C61.0622 33.6334 61 33.4554 61 33.2459V11.7541C61 11.5446 61.0622 11.3666 61.1865 11.2199C61.3315 11.0733 61.518 11 61.7459 11H66.4077C66.6149 11 66.791 11.0733 66.936 11.2199C67.081 11.3666 67.1536 11.5446 67.1536 11.7541V27.4645C67.1536 27.674 67.2157 27.852 67.34 27.9986C67.4851 28.1453 67.6715 28.2186 67.8995 28.2186H77.2541C77.4613 28.2186 77.6374 28.2919 77.7824 28.4385C77.9275 28.5852 78 28.7632 78 28.9727Z" fill="#0D53BB"></path>   <path d="M57.9995 11.7405C58.0031 11.6423 57.9868 11.5444 57.9517 11.453C57.9166 11.3616 57.8633 11.2785 57.7954 11.2091C57.7274 11.1396 57.6461 11.0852 57.5566 11.0494C57.4671 11.0135 57.3713 10.9968 57.2752 11.0005H52.7166C52.6212 10.9981 52.5263 11.0156 52.4379 11.052C52.3494 11.0885 52.2691 11.143 52.2021 11.2123C52.135 11.2817 52.0826 11.3643 52.0479 11.4551C52.0133 11.5459 51.9973 11.643 52.0008 11.7405V22.7353V33.2339C51.9962 33.3328 52.0113 33.4317 52.0452 33.5245C52.0791 33.6172 52.1311 33.702 52.198 33.7737C52.2649 33.8453 52.3454 33.9023 52.4345 33.9412C52.5237 33.9801 52.6196 34.0001 52.7166 34H57.2667C57.3631 34.0004 57.4586 33.9814 57.5478 33.9441C57.637 33.9067 57.7181 33.8518 57.7865 33.7824C57.8533 33.7121 57.9058 33.629 57.9409 33.5378C57.976 33.4466 57.993 33.3493 57.991 33.2513V22.7353L57.9995 11.7405Z" fill="#111111"></path>   <path d="M48.9963 11.7841V33.2159C48.9677 33.4139 48.8746 33.5973 48.7311 33.7387C48.5876 33.8801 48.4014 33.9718 48.2005 34H43.4257C43.2247 33.9718 43.0385 33.8801 42.895 33.7387C42.7515 33.5973 42.6585 33.4139 42.6298 33.2159V23.1098C42.6298 22.9356 42.5414 22.7614 42.3646 22.7614C42.2734 22.7597 42.1836 22.7834 42.1055 22.8296C42.0273 22.8758 41.9639 22.9427 41.9225 23.0227L36.5287 31.5606C36.4669 31.6418 36.3868 31.7076 36.2947 31.753C36.2026 31.7984 36.1011 31.822 35.9981 31.822C35.8952 31.822 35.7936 31.7984 35.7016 31.753C35.6095 31.7076 35.5294 31.6418 35.4676 31.5606L30.0738 23.0227C30.0324 22.9427 29.969 22.8758 29.8908 22.8296C29.8126 22.7834 29.7229 22.7597 29.6317 22.7614C29.4549 22.7614 29.3664 22.9356 29.3664 23.1098V33.2159C29.3378 33.4139 29.2448 33.5973 29.1013 33.7387C28.9578 33.8801 28.7716 33.9718 28.5706 34H23.7958C23.5949 33.9718 23.4087 33.8801 23.2652 33.7387C23.1217 33.5973 23.0286 33.4139 23 33.2159V11.7841C23.0286 11.5861 23.1217 11.4027 23.2652 11.2613C23.4087 11.1199 23.5949 11.0282 23.7958 11H28.2169C28.4596 11.0267 28.6975 11.0853 28.9243 11.1742C29.0379 11.2081 29.1434 11.2641 29.2345 11.3389C29.3257 11.4137 29.4006 11.5059 29.4549 11.6098L35.6444 20.4962C35.6879 20.5744 35.7518 20.6396 35.8296 20.685C35.9074 20.7304 35.9961 20.7544 36.0866 20.7544C36.177 20.7544 36.2657 20.7304 36.3435 20.685C36.4213 20.6396 36.4853 20.5744 36.5287 20.4962L42.6564 11.6098C42.7106 11.5059 42.7855 11.4137 42.8767 11.3389C42.9678 11.2641 43.0733 11.2081 43.1869 11.1742C43.4104 11.0755 43.6499 11.0165 43.8943 11H48.3154C48.4171 11.0063 48.5165 11.0327 48.6076 11.0776C48.6988 11.1225 48.7798 11.185 48.846 11.2614C48.9615 11.4105 49.0152 11.5974 48.9963 11.7841Z" fill="#111111"></path>   <path d="M0.00104912 11.7408C-0.00142384 11.642 0.0168909 11.5437 0.0548351 11.4522C0.0927794 11.3608 0.149527 11.2781 0.221488 11.2094C0.290428 11.1405 0.372978 11.0864 0.463996 11.0505C0.555015 11.0145 0.652554 10.9974 0.75054 11.0003H5.4591C5.55709 10.9974 5.65463 11.0145 5.74565 11.0505C5.83667 11.0864 5.91922 11.1405 5.98816 11.2094C6.06012 11.2781 6.11686 11.3608 6.15481 11.4522C6.19275 11.5437 6.21107 11.642 6.2086 11.7408V24.2766C6.18492 24.9619 6.31751 25.6437 6.59657 26.2715C6.82454 26.7538 7.15898 27.1795 7.57531 27.5173C7.94641 27.8033 8.36795 28.019 8.81859 28.1532C9.596 28.3969 10.4307 28.3969 11.2081 28.1532C11.6552 28.0233 12.0718 27.8072 12.4338 27.5173C12.842 27.176 13.17 26.7509 13.3949 26.2715C13.6814 25.6458 13.8173 24.9629 13.7917 24.2766V11.7408C13.7892 11.642 13.8075 11.5437 13.8455 11.4522C13.8834 11.3608 13.9402 11.2781 14.0121 11.2094C14.0811 11.1405 14.1636 11.0864 14.2546 11.0505C14.3456 11.0145 14.4432 10.9974 14.5412 11.0003H19.2497C19.4471 10.9985 19.6372 11.0736 19.7788 11.2094C19.8491 11.2793 19.9048 11.3622 19.9426 11.4534C19.9804 11.5446 19.9997 11.6422 19.9992 11.7408V24.2766C20.0155 25.641 19.7763 26.9967 19.2938 28.2752C18.8495 29.4277 18.161 30.4732 17.2746 31.3416C16.3678 32.204 15.29 32.8714 14.1091 33.3017C12.8011 33.7833 11.4135 34.0197 10.0178 33.9986C8.61907 34.0204 7.22854 33.784 5.91762 33.3017C4.73671 32.8714 3.65888 32.204 2.75212 31.3416C1.86585 30.4714 1.17487 29.4266 0.724087 28.2752C0.227235 27.0001 -0.0181859 25.6428 0.00104912 24.2766V11.7408Z" fill="#111111"></path> 
    </symbol>

    <symbol id ="icon-search" xmlns="http://www.w3.org/2000/svg" width="15" height="15" viewBox="0 0 17 17" fill="none">
        <path d="M11.9 11.731C11.8 11.731 11.8 11.731 11.9 11.731C11.8 11.8304 11.8 11.8304 11.8 11.8304C11.3 12.3275 10.7 12.7251 9.9 13.0234C9.2 13.3216 8.4 13.4211 7.6 13.4211C6.8 13.4211 6 13.2222 5.3 12.924C4.6 12.6257 4 12.2281 3.4 11.6316C2.9 11.1345 2.4 10.4386 2.1 9.74269C1.8 9.1462 1.7 8.45029 1.7 7.65497C1.7 6.85965 1.9 6.06433 2.2 5.36842C2.5 4.5731 2.9 3.97661 3.4 3.38012C4 2.88304 4.6 2.48538 5.3 2.18713C6 1.88889 6.8 1.69006 7.6 1.69006C8.4 1.69006 9.2 1.88889 9.9 2.18713C10.6 2.48538 11.3 2.88304 11.8 3.47953C12.3 3.97661 12.7 4.67251 13.1 5.36842C13.4 6.06433 13.6 6.76023 13.6 7.65497C13.6 8.45029 13.4 9.24561 13.1 9.94152C12.8 10.538 12.4 11.1345 11.9 11.731ZM16.7 15.4094L13.6 12.3275C14.1 11.6316 14.5 10.9357 14.8 10.1404C15.1 9.34503 15.2 8.45029 15.2 7.55556C15.2 6.46199 15 5.46784 14.6 4.5731C14.2 3.67836 13.7 2.88304 13 2.18713C12.3 1.49123 11.5 0.994152 10.6 0.596491C9.7 0.19883 8.7 0 7.6 0C6.6 0 5.6 0.19883 4.6 0.596491C3.7 0.994152 2.9 1.49123 2.2 2.18713C1.5 2.88304 1 3.67836 0.6 4.67251C0.2 5.56725 0 6.5614 0 7.65497C0 8.64912 0.2 9.64327 0.6 10.6374C1 11.5322 1.6 12.3275 2.3 13.0234C3 13.7193 3.8 14.2164 4.7 14.7134C5.6 15.0117 6.6 15.2105 7.6 15.2105C8.5 15.2105 9.4 15.1111 10.2 14.8129C11 14.5146 11.8 14.117 12.4 13.6199L15.5 16.7018C15.7 16.9006 15.9 17 16.1 17C16.3 17 16.5 16.9006 16.7 16.7018C16.9 16.5029 17 16.3041 17 16.1053C17 15.807 16.9 15.6082 16.7 15.4094Z" fill="#999999"/>
    </symbol>

     <symbol id="account-header" width="23" height="23" viewBox="0 0 17 17" fill="currentColor" xmlns="http://www.w3.org/2000/svg">
        <path d="M16.8927 15.7682C16.0329 14.3137 14.8061 13.1078 13.3338 12.27C11.8614 11.4322 10.1946 10.9914 8.49845 10.9914C6.80225 10.9914 5.13546 11.4322 3.66314 12.27C2.19082 13.1078 0.964024 14.3137 0.104236 15.7682C-0.00102398 15.9568 -0.027822 16.179 0.0295835 16.387C0.0566587 16.493 0.106188 16.592 0.174854 16.6774C0.243521 16.7627 0.329737 16.8325 0.427728 16.8821C0.554141 16.9534 0.697158 16.9903 0.842462 16.9894C0.986554 16.9954 1.12952 16.9616 1.25545 16.8917C1.38138 16.8218 1.48536 16.7185 1.5558 16.5933C2.26752 15.3886 3.2833 14.3898 4.50251 13.6958C5.72172 13.0018 7.10204 12.6367 8.50674 12.6367C9.91144 12.6367 11.2918 13.0018 12.511 13.6958C13.7302 14.3898 14.746 15.3886 15.4577 16.5933C15.5685 16.7806 15.7491 16.9169 15.9603 16.9725C16.1715 17.0281 16.3963 16.9986 16.5858 16.8903C16.6801 16.8403 16.7628 16.7711 16.8285 16.6872C16.8943 16.6034 16.9415 16.5067 16.9673 16.4035C16.998 16.298 17.0072 16.1874 16.9944 16.0783C16.9816 15.9692 16.947 15.8638 16.8927 15.7682Z"></path>
        <path d="M8.49966 10.2C9.83622 10.2002 11.1195 9.67091 12.0732 8.72594C13.027 7.78097 13.5752 6.49588 13.5997 5.14718C13.5997 3.78206 13.0623 2.47286 12.1059 1.50757C11.1495 0.542291 9.85226 0 8.49966 0C7.14705 0 5.84985 0.542291 4.89341 1.50757C3.93698 2.47286 3.39966 3.78206 3.39966 5.14718C3.42416 6.49588 3.97228 7.78097 4.92607 8.72594C5.87987 9.67091 7.1631 10.2002 8.49966 10.2ZM5.09966 5.14718C5.09966 4.2371 5.45787 3.3643 6.09549 2.72078C6.73312 2.07725 7.59792 1.71573 8.49966 1.71573C9.40139 1.71573 10.2662 2.07725 10.9038 2.72078C11.5414 3.3643 11.8997 4.2371 11.8997 5.14718C11.8997 6.05726 11.5414 6.93006 10.9038 7.57359C10.2662 8.21711 9.40139 8.57864 8.49966 8.57864C7.59792 8.57864 6.73312 8.21711 6.09549 7.57359C5.45787 6.93006 5.09966 6.05726 5.09966 5.14718Z"></path>
    </symbol>

    <symbol id="wishlist-header" width="28" height="29" viewBox="0 0 14 13" fill="currentColor" xmlns="http://www.w3.org/2000/svg">
        <path d="M11.7441 2.26562C11.9993 2.52083 12.1908 2.8125 12.3184 3.14062C12.446 3.45964 12.5098 3.78776 12.5098 4.125C12.5098 4.46224 12.446 4.79492 12.3184 5.12305C12.1908 5.44206 11.9993 5.72917 11.7441 5.98438L7 10.7285L2.25586 5.98438C2.00065 5.72917 1.80924 5.44206 1.68164 5.12305C1.55404 4.79492 1.49023 4.46224 1.49023 4.125C1.49023 3.78776 1.55404 3.45964 1.68164 3.14062C1.80924 2.8125 2.00065 2.52083 2.25586 2.26562C2.51107 2.01042 2.79818 1.81901 3.11719 1.69141C3.44531 1.5638 3.77799 1.5 4.11523 1.5C4.45247 1.5 4.7806 1.5638 5.09961 1.69141C5.41862 1.81901 5.71029 2.01042 5.97461 2.26562L6.58984 2.88086C6.69922 2.99935 6.83594 3.05859 7 3.05859C7.16406 3.05859 7.30078 2.99935 7.41016 2.88086L8.02539 2.26562C8.28971 2.01042 8.58138 1.81901 8.90039 1.69141C9.2194 1.5638 9.54753 1.5 9.88477 1.5C10.222 1.5 10.5501 1.5638 10.8691 1.69141C11.1973 1.81901 11.4889 2.01042 11.7441 2.26562ZM12.5645 1.44531C12.1999 1.07161 11.7806 0.79362 11.3066 0.611328C10.8418 0.429036 10.3678 0.337891 9.88477 0.337891C9.40169 0.337891 8.92773 0.429036 8.46289 0.611328C7.99805 0.79362 7.57878 1.07161 7.20508 1.44531L7 1.65039L6.79492 1.44531C6.42122 1.07161 6.00195 0.79362 5.53711 0.611328C5.07227 0.429036 4.59831 0.337891 4.11523 0.337891C3.63216 0.337891 3.15365 0.429036 2.67969 0.611328C2.21484 0.79362 1.80013 1.07161 1.43555 1.44531C1.06185 1.8099 0.779297 2.22917 0.587891 2.70312C0.405599 3.16797 0.314453 3.64193 0.314453 4.125C0.314453 4.60807 0.405599 5.08659 0.587891 5.56055C0.779297 6.02539 1.06185 6.4401 1.43555 6.80469L6.58984 11.959C6.69922 12.0775 6.83594 12.1367 7 12.1367C7.16406 12.1367 7.30078 12.0775 7.41016 11.959L12.5645 6.80469C12.9382 6.4401 13.2161 6.02539 13.3984 5.56055C13.5898 5.08659 13.6855 4.60807 13.6855 4.125C13.6855 3.64193 13.5898 3.16797 13.3984 2.70312C13.2161 2.23828 12.9382 1.81901 12.5645 1.44531Z"></path>
    </symbol>

    <symbol id="cart-header" xmlns="http://www.w3.org/2000/svg" width="27" height="23" viewBox="0 0 27 23" fill="currentColor">
        <path
            d="M19.3593 20.7192C19.064 20.7192 18.7807 20.6017 18.5719 20.3924C18.3631 20.1832 18.2458 19.8994 18.2458 19.6035H16.0187C16.0187 20.4912 16.3706 21.3426 16.9971 21.9703C17.6236 22.598 18.4733 22.9506 19.3593 22.9506C20.2453 22.9506 21.095 22.598 21.7215 21.9703C22.348 21.3426 22.7 20.4912 22.7 19.6035H20.4729C20.4729 19.8994 20.3555 20.1832 20.1467 20.3924C19.9379 20.6017 19.6546 20.7192 19.3593 20.7192Z"
            fill="currentColor" />
        <path
            d="M11.5234 20.7192C11.2281 20.7192 10.9449 20.6017 10.736 20.3924C10.5272 20.1832 10.4099 19.8994 10.4099 19.6035H8.17236C8.17236 20.0437 8.2589 20.4796 8.42702 20.8863C8.59515 21.2929 8.84158 21.6625 9.15224 21.9737C9.4629 22.285 9.83171 22.5319 10.2376 22.7003C10.6435 22.8688 11.0785 22.9555 11.5179 22.9555C11.9572 22.9555 12.3922 22.8688 12.7981 22.7003C13.204 22.5319 13.5728 22.285 13.8835 21.9737C14.1942 21.6625 14.4406 21.2929 14.6087 20.8863C14.7768 20.4796 14.8634 20.0437 14.8634 19.6035H12.6363C12.6363 19.8993 12.5191 20.183 12.3104 20.3922C12.1017 20.6014 11.8187 20.719 11.5234 20.7192Z"
            fill="currentColor" />
        <path
            d="M26.0504 2.26008C25.9897 2.24973 25.9282 2.2446 25.8666 2.24474H8.04992C7.75459 2.24474 7.47135 2.36229 7.26252 2.57152C7.05369 2.78075 6.93637 3.06453 6.93637 3.36043C6.93637 3.65633 7.05369 3.94012 7.26252 4.14935C7.47135 4.35858 7.75459 4.47613 8.04992 4.47613H24.552L24.2576 6.24589L22.6965 15.6331H8.17032L4.38427 6.24589L2.12586 0.695325C2.00643 0.434207 1.79109 0.229299 1.52466 0.123255C1.25824 0.0172112 0.961258 0.0182024 0.695545 0.126022C0.429832 0.233842 0.215858 0.440183 0.0981665 0.702092C-0.0195254 0.964001 -0.0318673 1.2613 0.0637099 1.53209L3.66951 10.397L6.13045 16.9321C6.31209 17.4823 6.68722 17.8644 7.22868 17.8644H23.6396C23.9032 17.8646 24.1584 17.7709 24.3597 17.6002C24.5609 17.4295 24.6951 17.1927 24.7385 16.9321L26.516 6.24589L26.9656 3.54383C27.0141 3.252 26.9449 2.95282 26.7733 2.71209C26.6017 2.47135 26.3416 2.30876 26.0504 2.26008Z"
            fill="currentColor" />
    </symbol>

    <symbol id="menu-title-header" width="20" height="20" viewBox="0 0 18 15" fill="none" xmlns="http://www.w3.org/2000/svg">
        <path
            d="M1.5 7C1.26562 7 1.0638 6.92188 0.894531 6.76562C0.738281 6.59635 0.660156 6.39453 0.660156 6.16016C0.660156 5.9388 0.738281 5.75 0.894531 5.59375C1.0638 5.42448 1.26562 5.33984 1.5 5.33984H16.5C16.7344 5.33984 16.9297 5.42448 17.0859 5.59375C17.2552 5.75 17.3398 5.9388 17.3398 6.16016C17.3398 6.39453 17.2552 6.59635 17.0859 6.76562C16.9297 6.92188 16.7344 7 16.5 7H1.5ZM1.5 2C1.26562 2 1.0638 1.92188 0.894531 1.76562C0.738281 1.59635 0.660156 1.39453 0.660156 1.16016C0.660156 0.938802 0.738281 0.75 0.894531 0.59375C1.0638 0.424479 1.26562 0.339844 1.5 0.339844H16.5C16.7344 0.339844 16.9297 0.424479 17.0859 0.59375C17.2552 0.75 17.3398 0.938802 17.3398 1.16016C17.3398 1.39453 17.2552 1.59635 17.0859 1.76562C16.9297 1.92188 16.7344 2 16.5 2H1.5ZM1.5 12C1.26562 12 1.0638 11.9219 0.894531 11.7656C0.738281 11.5964 0.660156 11.3945 0.660156 11.1602C0.660156 10.9388 0.738281 10.75 0.894531 10.5938C1.0638 10.4245 1.26562 10.3398 1.5 10.3398H16.5C16.7344 10.3398 16.9297 10.4245 17.0859 10.5938C17.2552 10.75 17.3398 10.9388 17.3398 11.1602C17.3398 11.3945 17.2552 11.5964 17.0859 11.7656C16.9297 11.9219 16.7344 12 16.5 12H1.5Z"
            fill="#111111"></path>
    </symbol>

    <symbol id="rencent-view" width="17" height="18" viewBox="0 0 17 18" fill="currentColor" xmlns="http://www.w3.org/2000/svg">
        <path
            d="M16.99 8.495C16.99 7.91538 16.9357 7.34784 16.827 6.79238C16.7062 6.23691 16.5372 5.7056 16.3198 5.19843C16.1145 4.69127 15.8549 4.20826 15.541 3.74939C15.2391 3.29053 14.8949 2.86789 14.5085 2.48148C14.1221 2.10715 13.6995 1.763 13.2406 1.44904C12.7938 1.14716 12.3168 0.887537 11.8097 0.670181C11.3025 0.452825 10.7712 0.289808 10.2157 0.18113C9.66027 0.0603767 9.08669 0 8.495 0C7.90331 0 7.32973 0.0603767 6.77426 0.18113C6.2188 0.289808 5.68748 0.452825 5.18032 0.670181C4.67316 0.887537 4.19618 1.14716 3.74939 1.44904C3.29053 1.763 2.86789 2.10715 2.48148 2.48148C2.09507 2.86789 1.75092 3.29053 1.44904 3.74939C1.13508 4.20826 0.869424 4.69127 0.652068 5.19843C0.446787 5.7056 0.28377 6.23691 0.163017 6.79238C0.054339 7.34784 0 7.91538 0 8.495C0 9.08669 0.054339 9.66027 0.163017 10.2157C0.28377 10.7712 0.446787 11.3025 0.652068 11.8097C0.869424 12.3168 1.13508 12.7999 1.44904 13.2587C1.75092 13.7055 2.09507 14.1221 2.48148 14.5085C2.86789 14.8949 3.29053 15.2391 3.74939 15.541C4.19618 15.8549 4.67316 16.1206 5.18032 16.3379C5.68748 16.5553 6.2188 16.7183 6.77426 16.827C7.32973 16.9477 7.90331 17.0081 8.495 17.0081C9.08669 17.0081 9.66027 16.9477 10.2157 16.827C10.7712 16.7183 11.3025 16.5553 11.8097 16.3379C12.3168 16.1206 12.7938 15.8549 13.2406 15.541C13.6995 15.2391 14.1221 14.8949 14.5085 14.5085C14.8949 14.1221 15.2391 13.7055 15.541 13.2587C15.8549 12.7999 16.1145 12.3168 16.3198 11.8097C16.5372 11.3025 16.7062 10.7712 16.827 10.2157C16.9357 9.66027 16.99 9.08669 16.99 8.495ZM15.4504 8.495C15.4504 9.46103 15.2693 10.3667 14.907 11.212C14.5447 12.0572 14.0497 12.7938 13.4217 13.4217C12.7817 14.0497 12.0391 14.5447 11.1938 14.907C10.3606 15.2693 9.46103 15.4504 8.495 15.4504C7.52897 15.4504 6.62332 15.2693 5.77805 14.907C4.94485 14.5447 4.20826 14.0497 3.56826 13.4217C2.94034 12.7938 2.44526 12.0572 2.083 11.212C1.72074 10.3667 1.53961 9.46103 1.53961 8.495C1.53961 7.54105 1.72074 6.64144 2.083 5.79616C2.44526 4.95089 2.94034 4.21429 3.56826 3.58638C4.20826 2.95846 4.94485 2.46337 5.77805 2.10111C6.62332 1.72677 7.52897 1.53961 8.495 1.53961C9.46103 1.53961 10.3606 1.72677 11.1938 2.10111C12.0391 2.46337 12.7817 2.95846 13.4217 3.58638C14.0497 4.21429 14.5447 4.95089 14.907 5.79616C15.2693 6.64144 15.4504 7.54105 15.4504 8.495ZM7.71614 3.85807V8.495C7.71614 8.65198 7.75237 8.79085 7.82482 8.9116C7.90935 9.03235 8.01802 9.12292 8.15085 9.1833L11.2482 10.741C11.4293 10.8376 11.6225 10.8557 11.8278 10.7954C12.0331 10.7229 12.184 10.5901 12.2806 10.3969C12.3772 10.2037 12.3893 10.0044 12.3168 9.79914C12.2565 9.59386 12.1297 9.44291 11.9365 9.34631L9.27386 8.02406V3.85807C9.27386 3.65279 9.19537 3.4777 9.03839 3.33279C8.89349 3.17581 8.71236 3.09732 8.495 3.09732C8.27764 3.09732 8.09048 3.17581 7.9335 3.33279C7.78859 3.4777 7.71614 3.65279 7.71614 3.85807Z">
         </path>
     </symbol>

     <symbol id="recently-pro-view" width="17" height="18" viewBox="0 0 17 18" fill="currentColor" xmlns="http://www.w3.org/2000/svg">
        <path
            d="M16.99 8.495C16.99 7.91538 16.9357 7.34784 16.827 6.79238C16.7062 6.23691 16.5372 5.7056 16.3198 5.19843C16.1145 4.69127 15.8549 4.20826 15.541 3.74939C15.2391 3.29053 14.8949 2.86789 14.5085 2.48148C14.1221 2.10715 13.6995 1.763 13.2406 1.44904C12.7938 1.14716 12.3168 0.887537 11.8097 0.670181C11.3025 0.452825 10.7712 0.289808 10.2157 0.18113C9.66027 0.0603767 9.08669 0 8.495 0C7.90331 0 7.32973 0.0603767 6.77426 0.18113C6.2188 0.289808 5.68748 0.452825 5.18032 0.670181C4.67316 0.887537 4.19618 1.14716 3.74939 1.44904C3.29053 1.763 2.86789 2.10715 2.48148 2.48148C2.09507 2.86789 1.75092 3.29053 1.44904 3.74939C1.13508 4.20826 0.869424 4.69127 0.652068 5.19843C0.446787 5.7056 0.28377 6.23691 0.163017 6.79238C0.054339 7.34784 0 7.91538 0 8.495C0 9.08669 0.054339 9.66027 0.163017 10.2157C0.28377 10.7712 0.446787 11.3025 0.652068 11.8097C0.869424 12.3168 1.13508 12.7999 1.44904 13.2587C1.75092 13.7055 2.09507 14.1221 2.48148 14.5085C2.86789 14.8949 3.29053 15.2391 3.74939 15.541C4.19618 15.8549 4.67316 16.1206 5.18032 16.3379C5.68748 16.5553 6.2188 16.7183 6.77426 16.827C7.32973 16.9477 7.90331 17.0081 8.495 17.0081C9.08669 17.0081 9.66027 16.9477 10.2157 16.827C10.7712 16.7183 11.3025 16.5553 11.8097 16.3379C12.3168 16.1206 12.7938 15.8549 13.2406 15.541C13.6995 15.2391 14.1221 14.8949 14.5085 14.5085C14.8949 14.1221 15.2391 13.7055 15.541 13.2587C15.8549 12.7999 16.1145 12.3168 16.3198 11.8097C16.5372 11.3025 16.7062 10.7712 16.827 10.2157C16.9357 9.66027 16.99 9.08669 16.99 8.495ZM15.4504 8.495C15.4504 9.46103 15.2693 10.3667 14.907 11.212C14.5447 12.0572 14.0497 12.7938 13.4217 13.4217C12.7817 14.0497 12.0391 14.5447 11.1938 14.907C10.3606 15.2693 9.46103 15.4504 8.495 15.4504C7.52897 15.4504 6.62332 15.2693 5.77805 14.907C4.94485 14.5447 4.20826 14.0497 3.56826 13.4217C2.94034 12.7938 2.44526 12.0572 2.083 11.212C1.72074 10.3667 1.53961 9.46103 1.53961 8.495C1.53961 7.54105 1.72074 6.64144 2.083 5.79616C2.44526 4.95089 2.94034 4.21429 3.56826 3.58638C4.20826 2.95846 4.94485 2.46337 5.77805 2.10111C6.62332 1.72677 7.52897 1.53961 8.495 1.53961C9.46103 1.53961 10.3606 1.72677 11.1938 2.10111C12.0391 2.46337 12.7817 2.95846 13.4217 3.58638C14.0497 4.21429 14.5447 4.95089 14.907 5.79616C15.2693 6.64144 15.4504 7.54105 15.4504 8.495ZM7.71614 3.85807V8.495C7.71614 8.65198 7.75237 8.79085 7.82482 8.9116C7.90935 9.03235 8.01802 9.12292 8.15085 9.1833L11.2482 10.741C11.4293 10.8376 11.6225 10.8557 11.8278 10.7954C12.0331 10.7229 12.184 10.5901 12.2806 10.3969C12.3772 10.2037 12.3893 10.0044 12.3168 9.79914C12.2565 9.59386 12.1297 9.44291 11.9365 9.34631L9.27386 8.02406V3.85807C9.27386 3.65279 9.19537 3.4777 9.03839 3.33279C8.89349 3.17581 8.71236 3.09732 8.495 3.09732C8.27764 3.09732 8.09048 3.17581 7.9335 3.33279C7.78859 3.4777 7.71614 3.65279 7.71614 3.85807Z">
        </path>
    </symbol>

    <symbol id="backtop" xmlns="http://www.w3.org/2000/svg" viewBox="0 0 24 30" width="30" height="30">
        <path d="M7.29 15.71a1 1 0 0 0 1.42 0L12 12.41l3.29 3.3a1 1 0 1 0 1.42-1.42l-4-4a1 1 0 0 0-1.42 0l-4 4a1 1 0 0 0 0 1.42z"/>
        <path d="M7.29 7.71a1 1 0 0 0 1.42 0L12 4.41l3.29 3.3a1 1 0 1 0 1.42-1.42l-4-4a1 1 0 0 0-1.42 0l-4 4a1 1 0 0 0 0 1.42z" transform="translate(0 14)"/>
    </symbol>

    <symbol id="shipping" width="20" height="14" viewBox="0 0 20 14" fill="none" xmlns="http://www.w3.org/2000/svg">
        <path d="M18.8015 6.61104L17.711 5.59952C17.6367 5.53058 17.5796 5.44506 17.5446 5.34991L16.6882 3.0245C16.5657 2.69678 16.3463 2.41417 16.0591 2.21432C15.772 2.01448 15.4307 1.90691 15.0809 1.90594H13.7833V1.54193C13.7833 1.38539 13.7212 1.23526 13.6105 1.12457C13.4998 1.01388 13.3496 0.951691 13.1931 0.951691H5.35161C5.23493 0.950317 5.12232 0.9945 5.03771 1.07485C4.9531 1.1552 4.90316 1.26538 4.89851 1.38197C4.89743 1.44025 4.90796 1.49816 4.92951 1.55232C4.95106 1.60648 4.98319 1.65581 5.02402 1.69741C5.06485 1.73901 5.11356 1.77206 5.16731 1.79462C5.22106 1.81718 5.27876 1.8288 5.33705 1.8288H12.9062V5.63436C12.9062 5.7909 12.9684 5.94103 13.0791 6.05172C13.1898 6.16242 13.3399 6.2246 13.4964 6.2246H17.061L18.1197 7.17734V10.7313H17.1599C17.0643 10.3131 16.8296 9.93972 16.4942 9.6723C16.1587 9.40487 15.7424 9.25924 15.3134 9.25924C14.8845 9.25924 14.4682 9.40487 14.1327 9.6723C13.7973 9.93972 13.5626 10.3131 13.467 10.7313H10.5136C10.4181 10.3131 10.1833 9.93972 9.84791 9.6723C9.51247 9.40487 9.09619 9.25924 8.66719 9.25924C8.2382 9.25924 7.82191 9.40487 7.48648 9.6723C7.15104 9.93972 6.91633 10.3131 6.82075 10.7313H5.35157C5.23488 10.7299 5.12226 10.7741 5.03765 10.8545C4.95305 10.9349 4.90313 11.0451 4.89851 11.1617C4.89743 11.22 4.90796 11.2779 4.92951 11.332C4.95106 11.3862 4.98319 11.4355 5.02402 11.4771C5.06485 11.5187 5.11357 11.5518 5.16731 11.5743C5.22106 11.5969 5.27876 11.6085 5.33705 11.6085H6.82814C6.92972 12.0194 7.16602 12.3845 7.49933 12.6455C7.83265 12.9064 8.24376 13.0482 8.66707 13.0482C9.09038 13.0482 9.5015 12.9064 9.83481 12.6455C10.1681 12.3845 10.4044 12.0194 10.506 11.6085H13.4745C13.576 12.0194 13.8123 12.3845 14.1457 12.6455C14.479 12.9064 14.8901 13.0482 15.3134 13.0482C15.7367 13.0482 16.1478 12.9064 16.4811 12.6455C16.8144 12.3845 17.0507 12.0194 17.1523 11.6085H18.4066C18.5631 11.6085 18.7133 11.5463 18.824 11.4356C18.9346 11.325 18.9968 11.1748 18.9968 11.0183V7.04972C18.9968 6.967 18.9794 6.88521 18.9457 6.80965C18.9121 6.73409 18.8629 6.66642 18.8015 6.61104ZM13.7833 5.34759V2.78302H15.0809C15.2517 2.78348 15.4183 2.836 15.5585 2.93358C15.6987 3.03116 15.8059 3.16915 15.8656 3.32917L16.6132 5.34759H13.7833ZM8.66709 12.171C8.46588 12.171 8.26919 12.1113 8.10189 11.9995C7.9346 11.8877 7.8042 11.7288 7.72721 11.543C7.65021 11.3571 7.63007 11.1525 7.66932 10.9552C7.70858 10.7578 7.80547 10.5766 7.94775 10.4343C8.09003 10.292 8.2713 10.1951 8.46864 10.1559C8.66598 10.1166 8.87053 10.1368 9.05642 10.2138C9.24231 10.2908 9.40119 10.4212 9.51297 10.5885C9.62475 10.7558 9.68441 10.9525 9.68441 11.1537C9.6841 11.4234 9.57682 11.682 9.3861 11.8727C9.19538 12.0634 8.9368 12.1707 8.66709 12.171ZM15.3134 12.171C15.1122 12.171 14.9155 12.1113 14.7482 11.9995C14.5809 11.8877 14.4505 11.7289 14.3735 11.543C14.2965 11.3571 14.2764 11.1525 14.3156 10.9552C14.3549 10.7578 14.4518 10.5766 14.594 10.4343C14.7363 10.292 14.9176 10.1951 15.1149 10.1559C15.3123 10.1166 15.5168 10.1368 15.7027 10.2138C15.8886 10.2908 16.0475 10.4212 16.1593 10.5885C16.271 10.7558 16.3307 10.9525 16.3307 11.1537C16.3304 11.4234 16.2231 11.682 16.0324 11.8727C15.8417 12.0634 15.5831 12.1707 15.3134 12.171Z" fill="currentColor" stroke="currentColor" stroke-width="0.3"></path>
        <path d="M3.46986 4.28249H8.44355C8.55988 4.28249 8.67144 4.23628 8.7537 4.15403C8.83595 4.07177 8.88216 3.96021 8.88216 3.84388C8.88216 3.72756 8.83595 3.61599 8.7537 3.53374C8.67144 3.45148 8.55988 3.40527 8.44355 3.40527H3.46986C3.35353 3.40527 3.24197 3.45148 3.15972 3.53374C3.07746 3.61599 3.03125 3.72756 3.03125 3.84388C3.03125 3.96021 3.07746 4.07177 3.15972 4.15403C3.24197 4.23628 3.35353 4.28249 3.46986 4.28249Z" fill="currentColor" stroke="currentColor" stroke-width="0.3"></path>
        <path d="M8.87579 6.27994C8.87579 6.16361 8.82958 6.05205 8.74732 5.96979C8.66507 5.88754 8.55351 5.84133 8.43718 5.84133H1.43472C1.3768 5.84081 1.31934 5.85177 1.26567 5.87358C1.21201 5.89539 1.16319 5.92761 1.12204 5.96839C1.0809 6.00917 1.04824 6.05769 1.02595 6.11116C1.00366 6.16463 0.992188 6.22199 0.992188 6.27992C0.992188 6.33785 1.00366 6.3952 1.02595 6.44867C1.04824 6.50214 1.0809 6.55067 1.12204 6.59145C1.16319 6.63223 1.21201 6.66445 1.26567 6.68626C1.31934 6.70807 1.3768 6.71903 1.43472 6.71851H8.43718C8.5535 6.71851 8.66506 6.6723 8.74731 6.59006C8.82957 6.50781 8.87578 6.39626 8.87579 6.27994Z" fill="currentColor" stroke="currentColor" stroke-width="0.3"></path>
        <path d="M6.10138 8.71641C6.10138 8.65881 6.09003 8.60178 6.06799 8.54857C6.04595 8.49536 6.01365 8.44701 5.97292 8.40629C5.9322 8.36556 5.88385 8.33326 5.83064 8.31122C5.77743 8.28918 5.7204 8.27783 5.6628 8.27783H2.61437C2.49873 8.27887 2.38818 8.32553 2.30677 8.40767C2.22536 8.48981 2.17969 8.60078 2.17969 8.71642C2.17969 8.83207 2.22536 8.94304 2.30677 9.02518C2.38818 9.10732 2.49873 9.15398 2.61437 9.15502H5.6628C5.77912 9.15501 5.89068 9.10879 5.97292 9.02654C6.05517 8.94428 6.10138 8.83273 6.10138 8.71641Z" fill="currentColor" stroke="currentColor" stroke-width="0.3"></path>
    </symbol>

    <symbol id="empty" width="62" height="69" viewBox="0 0 62 69" fill="none" xmlns="http://www.w3.org/2000/svg">
        <path fill-rule="evenodd" clip-rule="evenodd" d="M2.08737 28.4645C2.08737 28.4645 2.08737 28.4645 2.08737 28.4645L2.73622 31.7945C2.84185 32.3366 2.48803 32.8616 1.94594 32.9673C1.40385 33.0729 0.878769 32.7191 0.773143 32.177L0.124283 28.847C-0.665369 24.7938 2.40693 21 6.52744 21H55.4733C59.5451 21 62.6061 24.7104 61.898 28.7297L55.7575 63.5715C55.2054 66.7055 52.5032 69 49.3328 69H13.9327C10.8871 69 8.25497 66.8784 7.57386 63.8981C7.57386 63.8981 7.57386 63.8981 7.57386 63.8981L6.61662 59.71C6.49356 59.1716 6.83027 58.6354 7.36867 58.5123C7.90707 58.3893 8.44328 58.726 8.56634 59.2644L9.52358 63.4524C9.99963 65.5355 11.8324 67 13.9327 67H49.3328C51.5189 67 53.4017 65.416 53.7878 63.2245L59.9283 28.3827C60.4248 25.565 58.2786 23 55.4733 23H6.52744C3.68849 23 1.53379 25.623 2.08737 28.4645Z" fill="#DEDEDE"></path>
        <path d="M28.9027 2.47902C29.391 1.74918 29.1972 0.760308 28.4699 0.27033C27.7425 -0.219647 26.7571 -0.0251418 26.2688 0.704705L9.76598 25.3734C9.2777 26.1032 9.47153 27.0921 10.1988 27.5821C10.9262 28.072 11.9116 27.8775 12.3999 27.1477L28.9027 2.47902Z" fill="#DEDEDE"></path>
        <path d="M49.6341 26.9818C50.3923 27.422 51.3625 27.162 51.8014 26.401C52.2397 25.6401 51.9806 24.6664 51.2224 24.2262L31.0853 12.5365C30.327 12.0963 29.3567 12.3563 28.9181 13.1173C28.4794 13.8781 28.7385 14.8518 29.4967 15.292L49.6341 26.9818Z" fill="#DEDEDE"></path>
        <path fill-rule="evenodd" clip-rule="evenodd" d="M31.0099 46.9028C30.7467 46.9639 30.423 47.2225 30.2155 47.4984C29.7609 48.1028 28.9649 48.1704 28.4376 47.6495C27.9102 47.1285 27.8512 46.2162 28.3058 45.6118C28.7285 45.0498 29.5089 44.3029 30.5098 44.0707C31.0378 43.9482 31.6328 43.9702 32.2308 44.2541C32.8242 44.5358 33.335 45.0345 33.7603 45.7078C34.1687 46.354 34.0425 47.2573 33.4786 47.7253C32.9147 48.1933 32.1266 48.0487 31.7183 47.4024C31.5084 47.0702 31.3454 46.9614 31.266 46.9237C31.1911 46.8882 31.114 46.8787 31.0099 46.9028Z" fill="#DEDEDE"></path>
        <path d="M22.5 42C23.3284 42 24 41.3284 24 40.5C24 39.6716 23.3284 39 22.5 39C21.6716 39 21 39.6716 21 40.5C21 41.3284 21.6716 42 22.5 42Z" fill="#DEDEDE"></path>
    <path d="M39.5 42C40.3287 42 41 41.3284 41 40.5C41 39.6716 40.3287 39 39.5 39C38.6713 39 38 39.6716 38 40.5C38 41.3284 38.6713 42 39.5 42Z" fill="#DEDEDE"></path>
    </symbol>
</svg>